Coordinates
version=1
nRows=54
nColumns=12
inDegrees=yes

Units are S.I. units (second, meters, Newtons, ...)
Angles are in degrees

endheader
time	SC_y	SC_z	SC_x	AC_y	AC_z	AC_x	GH_y	GH_z	GH_yy	EL_x	PS_y
       0.0               -11.5          1.915          2.042          46.67         -15.49         -16.89         -150.6         -2.598         -47.25          77.87          69.56
   0.03135               -11.5          1.918          2.049          46.67         -15.49         -16.89         -150.6         -2.587         -47.25          77.88          69.55
   0.06271               -11.5          1.921          2.056          46.67         -15.49         -16.89         -150.6         -2.574         -47.26          77.89          69.55
   0.09406              -11.51          1.925          2.064          46.68         -15.49         -16.89         -150.6         -2.561         -47.26           77.9          69.54
    0.1254              -11.51          1.929          2.072          46.68         -15.48         -16.89         -150.6         -2.547         -47.27          77.91          69.54
    0.1568              -11.51          1.933          2.081          46.68         -15.48         -16.89         -150.6         -2.532         -47.28          77.92          69.53
    0.1881              -11.52          1.937           2.09          46.68         -15.48         -16.89         -150.6         -2.516         -47.28          77.93          69.52
    0.2195              -11.52          1.941            2.1          46.68         -15.48         -16.89         -150.6         -2.499         -47.29          77.94          69.52
    0.2508              -11.53          1.946          2.111          46.68         -15.48         -16.89         -150.6          -2.48          -47.3          77.96          69.51
    0.2822              -11.53          1.952          2.123          46.69         -15.48         -16.89         -150.6          -2.46         -47.31          77.97           69.5
    0.3135              -11.54          1.957          2.135          46.69         -15.47         -16.89         -150.6         -2.439         -47.31          77.99          69.49
    0.3449              -11.54          1.963          2.148          46.69         -15.47         -16.89         -150.6         -2.416         -47.32          78.01          69.48
    0.3763              -11.55           1.97          2.163          46.69         -15.47         -16.89         -150.6         -2.392         -47.33          78.02          69.47
    0.4076              -11.56          1.977          2.178          46.69         -15.47         -16.89         -150.6         -2.365         -47.34          78.04          69.46
     0.439              -11.57          1.984          2.195           46.7         -15.46         -16.89         -150.6         -2.336         -47.36          78.07          69.45
    0.4703              -11.57          1.993          2.213           46.7         -15.46         -16.89         -150.6         -2.305         -47.37          78.09          69.43
    0.5017              -11.58          2.002          2.233           46.7         -15.46         -16.89         -150.6         -2.271         -47.38          78.12          69.42
     0.533              -11.59          2.011          2.254          46.71         -15.45         -16.89         -150.6         -2.235          -47.4          78.14           69.4
    0.5644               -11.6          2.022          2.278          46.71         -15.45         -16.89         -150.6         -2.194         -47.41          78.17          69.39
    0.5957              -11.62          2.034          2.304          46.72         -15.45         -16.89         -150.6          -2.15         -47.43          78.21          69.37
    0.6271              -11.63          2.047          2.332          46.72         -15.44          -16.9         -150.6         -2.102         -47.45          78.24          69.35
    0.6585              -11.64          2.061          2.363          46.73         -15.44          -16.9         -150.6         -2.048         -47.47          78.28          69.32
    0.6898              -11.66          2.076          2.397          46.73         -15.43          -16.9         -150.6         -1.989          -47.5          78.33           69.3
    0.7212              -11.68          2.094          2.435          46.74         -15.42          -16.9         -150.6         -1.924         -47.53          78.38          69.27
    0.7525               -11.7          2.113          2.478          46.74         -15.42          -16.9         -150.6         -1.852         -47.56          78.43          69.24
    0.7839              -11.72          2.134          2.525          46.75         -15.41          -16.9         -150.6         -1.771         -47.59          78.49          69.21
    0.8152              -11.74          2.159          2.578          46.76          -15.4          -16.9         -150.6          -1.68         -47.63          78.56          69.17
    0.8466              -11.77          2.186          2.637          46.77         -15.39          -16.9         -150.6         -1.578         -47.67          78.64          69.12
    0.8779               -11.8          2.216          2.704          46.78         -15.38          -16.9         -150.6         -1.463         -47.71          78.73          69.07
    0.9093              -11.84          2.251          2.781           46.8         -15.36          -16.9         -150.6         -1.332         -47.77          78.83          69.02
    0.9406              -11.88           2.29          2.868          46.81         -15.35          -16.9         -150.6         -1.183         -47.83          78.94          68.95
     0.972              -11.92          2.336          2.968          46.83         -15.33          -16.9         -150.6         -1.011          -47.9          79.07          68.88
     1.003              -11.97          2.388          3.083          46.85         -15.31         -16.91         -150.6        -0.8132         -47.98          79.22           68.8
     1.035              -12.04          2.449          3.217          46.87         -15.29         -16.91         -150.6        -0.5832         -48.07          79.39           68.7
     1.066              -12.11          2.521          3.374          46.89         -15.26         -16.91         -150.6        -0.3141         -48.19           79.6          68.58
     1.097              -12.19          2.605          3.559          46.92         -15.23         -16.91         -150.6       0.003054         -48.32          79.84          68.45
     1.129              -12.29          2.705          3.779          46.96          -15.2         -16.92         -150.6           0.38         -48.47          80.12          68.29
      1.16              -12.42          2.825          4.042          47.01         -15.15         -16.92         -150.6         0.8318         -48.65          80.46          68.09
     1.191              -12.56           2.97          4.361          47.06          -15.1         -16.92         -150.6          1.378         -48.88          80.88          67.86
     1.223              -12.74          3.147           4.75          47.12         -15.03         -16.93         -150.6          2.046         -49.15          81.38          67.58
     1.254              -12.96          3.366          5.231           47.2         -14.95         -16.94         -150.6           2.87         -49.49          82.01          67.22
     1.286              -13.24          3.638           5.83           47.3         -14.85         -16.94         -150.6          3.898         -49.91          82.78          66.79
     1.317              -13.58          3.982          6.585          47.43         -14.72         -16.95         -150.6          5.193         -50.44          83.76          66.23
     1.348              -14.03          4.418          7.544          47.59         -14.56         -16.97         -150.6          6.839         -51.12          85.01          65.53
      1.38              -14.59          4.977          8.773          47.79         -14.35         -16.99         -150.6          8.945         -51.98           86.6          64.63
     1.411              -15.32          5.694          10.35          48.06         -14.09         -17.01         -150.6          11.65         -53.09          88.65          63.48
     1.442              -16.24           6.61          12.36          48.39         -13.75         -17.04         -150.5           15.1          -54.5          91.26           62.0
     1.474              -17.41          7.762          14.89          48.81         -13.32         -17.07         -150.5          19.44         -56.28          94.54          60.15
     1.505              -18.82          9.165          17.98          49.33          -12.8         -17.11         -150.5          24.73         -58.45          98.55          57.89
     1.536              -20.47          10.79          21.55          49.92         -12.19         -17.16         -150.5          30.87         -60.96          103.2          55.27
     1.568              -22.25          12.55          25.43          50.57         -11.54         -17.22         -150.4          37.51         -63.69          108.2          52.44
     1.599              -24.03          14.32           29.3          51.21         -10.88         -17.27         -150.4          44.15         -66.41          113.2           49.6
      1.63              -25.67          15.94          32.87          51.81         -10.28         -17.32         -150.4          50.28         -68.92          117.9          46.98
     1.662              -27.09          17.35          35.96          52.32         -9.757         -17.36         -150.3          55.57         -71.09          121.9          44.73
